# xmcd
#
# Track frame offsets: 
#        150
#        20173
#        42396
#        59901
#        76494
#        95044
#        113098
#        130386
#        148925
#        167271
#        182740
#        200215
#
# Disc length: 2860 seconds
#
# Revision: 0
# Processed by: cddbd v1.5.2PL0 Copyright (c) Steve Scherf et al.
# Submitted via: ExactAudioCopy v0.99pb3
#
DISCID=b90b2a0c
DTITLE=Carrie Newcomer - A Permeable Life
DYEAR=2014
DGENRE=Rock and Roll
TTITLE0=Every Little Bit of It
TTITLE1=The Ten O'clock Line
TTITLE2=Writing You a Letter
TTITLE3=A Light in the Window
TTITLE4=The Work of Our Hands
TTITLE5=Abide
TTITLE6=Room at the Table
TTITLE7=Thank You Good Night
TTITLE8=Forever Ray
TTITLE9=An Empty Chair
TTITLE10=Visitation
TTITLE11=Please Don't Put Me on Hold
EXTD=
EXTT0=
EXTT1=
EXTT2=
EXTT3=
EXTT4=
EXTT5=
EXTT6=
EXTT7=
EXTT8=
EXTT9=
EXTT10=
EXTT11=
PLAYORDER=
